<svg xmlns="http://www.w3.org/2000/svg"
    viewBox="0 0 24 24"
    width="20"
    height="20"
    fill="currentColor">
    <path
        d="M20.447 20.452H16.9v-5.569c0-1.329-.025-3.04-1.852-3.04-1.853 0-2.136 1.447-2.136 2.941v5.668H9.365V9h3.414v1.561h.049c.476-.9 1.637-1.852 3.369-1.852 3.602 0 4.269 2.37 4.269 5.455v6.288zM5.337 7.433a2.062 2.062 0 01-2.062-2.063 2.062 2.062 0 012.062-2.062 2.062 2.062 0 012.063 2.062 2.062 2.062 0 01-2.063 2.063zM6.816 20.452H3.857V9h2.959v11.452zM22.225 0H1.771C.792 0 0 .774 0 1.729v20.542C0 23.227.792 24 1.771 24h20.451C23.2 24 24 23.227 24 22.271V1.729C24 .774 23.2 0 22.222 0h.003z" />
</svg>